<?xml version="1.0" encoding="utf-8"?>
<!-- Generator: Adobe Illustrator 27.5.0, SVG Export Plug-In . SVG Version: 6.00 Build 0)  -->
<svg version="1.1" xmlns="http://www.w3.org/2000/svg" xmlns:xlink="http://www.w3.org/1999/xlink" x="0px" y="0px"
	 viewBox="0 0 499.999 500" style="enable-background:new 0 0 499.999 500;" xml:space="preserve">
<g id="BACKGROUND">
	<rect x="-0.001" style="fill:#FFFFFF;" width="500" height="500"/>
</g>
<g id="OBJECTS">
	<path style="fill:#D7E6FC;" d="M107.276,331.016c80.719,50.717,70.94,64.49,142.686,75.775
		c71.746,11.286,186.392-1.68,167.676-86.256c-12.758-57.651,57.235-162.033-64.49-179.768
		c-88.915-12.954-138.654-75.776-232.973,11.286C81.946,187.341,19.298,275.737,107.276,331.016z"/>
	<g>
		<g>
			<path style="fill:#C81D26;" d="M217.348,198.059c13.861-30.808,19.878-89.889-5.333-102.072
				c-3.767-2.93-43.53-10.464-52.739,25.115c-9.208,35.58-5.022,37.254-27.626,52.741c-22.603,15.487-43.95,58.183-4.186,65.717
				C164.299,230.351,217.348,198.059,217.348,198.059z"/>
			<path style="fill:#E02932;" d="M201.295,113.526c-6.173,6.391-12.826,9.975-23.941,15.105c-11.115,5.13-11.102,14.778-5.7,24.226
				c7.214,12.615-6.878,32.454-19.096,28.216c9.314-2.211,23.299-19.633,18.728-27.252c-6.081-10.136-12.054-20.137,1.224-26.045
				C185.015,122.212,193.496,119.935,201.295,113.526z"/>
			<path style="fill:#E8636A;" d="M211.902,96.634c4.773,7.169,3.949,13.999-1.522,20.945c-0.254,0.323,0.183,0.698,0.459,0.394
				c6.173-6.789,6.069-15.483,1.562-21.624C212.149,96.005,211.737,96.385,211.902,96.634z"/>
			<path style="fill:#E02932;" d="M191.89,107.256c-2.851,6.484-9.548,10.831-16.674,13.11c-7.125,2.28-10.26,7.197-11.258,10.688
				c0-2.993,1.567-9.263,10.118-12.398C182.626,115.521,188.469,112.315,191.89,107.256z"/>
		</g>
		<g>
			<g>
				<path style="fill:#785F86;" d="M197.757,186.785c-0.561-0.002-1.11,0.006-1.648,0.034c-11.301,4.605-29.373,7.68-29.373,7.68
					s-8.716,4.877-20.855,6.552c-12.138,1.675-28.044,7.116-35.159,59.02c-7.116,51.904-3.767,60.276,26.37,41.858
					c-0.358,15.314-3.83,29.614-9.09,42.587c42.847,28.979,53.543,43.358,81.225,52.974l35.018-196.857
					C244.245,200.632,215.176,186.883,197.757,186.785z"/>
				<path style="fill:#5A4865;" d="M153.128,236.081c0,0-0.285,11.686-1.425,28.786c2.565-0.854,4.845-1.14,4.845-1.14
					S155.408,247.481,153.128,236.081z"/>
			</g>
			<g>
				<path style="fill:#9E88AB;" d="M227.967,193.904c-46.057,91.79-68.677,31.647-96.551,12.779
					c-2.633,2.072-5.231,4.925-7.692,8.899c22.031,2.84,29.778,22.297,41.09,31.613c30.467,25.095,56.48-28.554,75.136-48.489
					C237.012,197.434,232.115,195.302,227.967,193.904z"/>
				<path style="fill:#9E88AB;" d="M118.785,225.698c-1.261,3.061-2.539,7.035-3.541,10.993c13.12,1.99,29.872,7.483,38.169,29.886
					c5.7-4.56,6.84-7.98,6.84-7.98S134.786,240.86,118.785,225.698z"/>
				<path style="fill:#9E88AB;" d="M194.455,343.53c-6.736,11.022-33.111-0.605-46.006,15.38c3.398,2.488,6.545,4.836,9.5,7.059
					c2.61-16.777,12.325-18.049,34.796-5.338C192.745,360.63,194.169,350.94,194.455,343.53z"/>
				<path style="fill:#9E88AB;" d="M197.874,303.058c-24.139,24.612-47.687,31.146-66.241,31.349
					c-1.126,3.443-2.481,7.212-3.631,10.108c1.988,1.345,3.907,2.658,5.762,3.941c20.144-7.782,41.327-28.71,63.541-26.018
					C197.305,322.439,197.874,310.469,197.874,303.058z"/>
			</g>
		</g>
		<g>
			<g>
				<path style="fill:#F78851;" d="M183.91,234.371c3.765-6.391,11.704-12.953,14.107-13.252c2.423-0.303,16.105-1.857,18.259-1.057
					c1.249,0.464-0.192,3.176-2.188,3.604C211.952,225.518,183.91,234.371,183.91,234.371z"/>
				<path style="fill:#8D2E13;" d="M200.358,223.117c-0.426,0.043-0.294,0.608,0.062,0.581c4.925-0.385,9.973-0.986,14.392-0.048
					c0.646,0.138,0.719-0.442,0.305-0.521C210.355,222.225,204.355,222.713,200.358,223.117z"/>
			</g>
			<g>
				<path style="fill:#F78851;" d="M210.244,117.839c0,0-2.367,4.439-14.798,8.583c-12.432,4.144-14.503,7.399-11.839,17.167
					c2.663,9.768-0.296,12.431-5.92,18.055c-5.623,5.623,2.368,18.35-10.95,32.854c2.071,11.543,7.048,20.719,18.646,33.149
					c7.992-10.063,14.503-16.574,23.086-45.877c6.742-3.875,16.333-17.123,14.502-47.061
					C219.419,130.27,213.204,127.311,210.244,117.839z"/>
				<path style="fill:#8D2E13;" d="M177.155,162.249c-0.281,0.341-0.542,0.779-0.72,1.163c2.292,6.164,11.803,28.278,29.608,26.214
					c0.791-2.423,1.648-5.007,2.425-7.855C208.468,181.771,190.897,193.433,177.155,162.249z"/>
				<path style="fill:#8D2E13;" d="M209.216,162.051c-3.374,0.355-5.448,0.224-6.496,0.188c-0.413-0.015-0.453,0.582-0.009,0.604
					c1.093,0.052,3.341,0.212,6.933-0.211c0.197-0.024,0.304-0.222,0.245-0.411c-1.898-6.126-2.82-11.781-3.75-17.622
					c-0.061-0.389-0.651-0.276-0.597,0.065C206.606,151.221,207.632,157.126,209.216,162.051z"/>
				<path style="fill:#8D2E13;" d="M198.198,168.805c3.813,2.93,7.86,2.162,11.115,0.243c0.357-0.21,0.111-0.646-0.288-0.531
					c-3.19,0.917-7.437,1.067-10.439-0.176C198.218,168.189,197.941,168.608,198.198,168.805z"/>
				<path style="fill:#5A070B;" d="M197.66,147.054c0,1.445-1.172,2.616-2.616,2.616c-1.445,0-2.615-1.171-2.615-2.616
					c0-1.445,1.17-2.616,2.615-2.616C196.488,144.438,197.66,145.609,197.66,147.054z"/>
				<path style="fill:#5A070B;" d="M214.454,147.054c0,1.445-1.172,2.616-2.616,2.616c-1.445,0-2.616-1.171-2.616-2.616
					c0-1.445,1.171-2.616,2.616-2.616C213.282,144.438,214.454,145.609,214.454,147.054z"/>
				<path style="fill:#5A070B;" d="M207.314,138.604c-0.254,0.314,0.126,0.556,0.481,0.366c3.512-1.871,5.824-0.844,8.724,0.205
					c0.389,0.141,0.745-0.035,0.488-0.358C214.041,135.091,210.434,134.727,207.314,138.604z"/>
				<path style="fill:#5A070B;" d="M199.542,138.604c0.253,0.314-0.126,0.556-0.482,0.366c-3.512-1.871-5.824-0.844-8.724,0.205
					c-0.389,0.141-0.744-0.035-0.487-0.358C192.814,135.091,196.421,134.727,199.542,138.604z"/>
				<path style="fill:#8D2E13;" d="M210.244,117.839c0,0-2.715,4.556-14.798,8.583c-12.688,4.23-14.522,7.153-11.839,17.167
					c2.62,9.779-0.332,12.182-5.92,18.055c17.341-11.48,1.012-28.942,14.648-32.782
					C206.122,124.981,210.244,117.839,210.244,117.839z"/>
			</g>
		</g>
	</g>
	<g>
		<g>
			<path style="fill:#353C70;" d="M325.229,213.294c0,0,12.283,9.027,34.629-7.844c5.811,1.165,27.215,4.279,38.787,15.058
				c14.294,13.399,23.491,40.609,51.535,62.584c7.116,2.094,7.534,2.931,10.883,11.721c5.232,5.86,1.047,26.79-7.744,30.347
				c-8.789,3.559-18.416,2.512-25.95-5.65c-2.722,0.419-12.767-2.092-41.229-20.719c-2.721,14.649-11.719,55.098-9.627,97.375
				c-14.835,6.535-30.537,9.763-42.996,11.532c-23.377,1.066-61.187,1.102-79.765-0.337c0-39.07,25.234-178.09,25.234-178.09
				S293.55,214.483,325.229,213.294z"/>
			<path style="fill:#292E57;" d="M332.333,395.463c23.829-7.192,32.827-23.655,38.196-69.651c0.04-0.348-0.471-0.417-0.561-0.056
				c-6.641,26.525-17.24,58.021-37.806,69.112C331.687,395.125,332.044,395.549,332.333,395.463z"/>
			<path style="fill:#23274A;" d="M391.674,265.534c-1.479,14.207-5.535,33.256-5.535,33.256c1.152,0.753,2.263,1.473,3.354,2.175
				C390.503,291.161,392.414,272.675,391.674,265.534z"/>
			<path style="fill:#23274A;" d="M417.532,301.719c-0.485,3.696,0.203,9.923,1.08,15.531c4.955,2.061,7.562,2.442,8.757,2.259
				C417.114,309.881,417.532,301.719,417.532,301.719z"/>
			<path style="fill:#23274A;" d="M460.706,295.223c-5.316,14.935-19.675,23.607-32.877,23.912
				c-0.402,0.008-0.397,0.608,0.004,0.604c17.138-0.181,29.6-5.66,33.454-24.363C461.374,294.954,460.828,294.879,460.706,295.223z"
				/>
			<path style="fill:#856D92;" d="M352.982,264.385c5.433,1.351,17.353,2.949,24.17,2.774c-1.431,11.307-2.811,18.263-4.439,25.202
				c-4.686,4.88-16.71,6.065-22.674-2.544C351.285,280.012,352.982,264.385,352.982,264.385z"/>
			<path style="fill:#F7EAEB;" d="M337.531,239.852c-13.522,0.231-16.204-14.034-15.902-25.545c0.019-0.694-0.976-0.697-1.011-0.037
				c-0.652,12.319,2.762,26.59,16.913,26.59c19.418,0,27.436-17.48,27.01-33.582c-0.017-0.688-1.006-0.706-1.007,0.01
				C363.5,229.292,350.885,239.624,337.531,239.852z"/>
		</g>
		<g>
			<path style="fill:#573C49;" d="M304.31,163.797c0,0-9.03-44.615,31.602-45.207c41.599-0.606,35.747,45.371,17.143,66.457
				C340.707,182.745,304.31,163.797,304.31,163.797z"/>
			<g>
				<path style="fill:#F77651;" d="M307.449,142.031c-2.721,3.767-14.858,59.229,17.789,66.763c0.16,1.412,0.324,2.909-0.008,4.499
					c-1.148,9.602,2.649,22.128,11.863,22.412c17.252,0.53,23.823-19.909,22.766-30.256c-2.369-3.404-6.158-9.631-6.786-26.375
					c11.666-1.262,8.052-35.251-3.521-16.202c-0.627-4.395,2.061-18.645-2.497-18.995
					C331.129,142.659,321.068,146.364,307.449,142.031z"/>
				<path style="fill:#8D2E13;" d="M317.759,166.917c-1.746,4.365-3.794,9.809-4.753,15.033c-0.022,0.116,0.023,0.241,0.123,0.302
					c2.386,1.442,6.585,1.229,8.536-0.107c0.345-0.236,0.006-0.702-0.354-0.49c-2.12,1.245-5.593,1.274-7.647,0.173
					c0.999-5.087,2.938-10.286,4.647-14.664C318.463,166.773,317.893,166.583,317.759,166.917z"/>
				<path style="fill:#8D2E13;" d="M348.759,190.355c-6.29,21.015-23.521,18.439-23.521,18.439c0.16,1.462,0.299,2.782-0.008,4.499
					C338.548,213.589,347.057,203.452,348.759,190.355z"/>
				<circle style="fill:#402130;" cx="328.963" cy="167.773" r="2.616"/>
				<path style="fill:#8D2E13;" d="M351.635,166.564c0.504-1.411,3.318-5.291,4.435-4.232c2.015,1.914,0.806,14.409-3.729,11.588
					C352.946,172.106,353.72,170.255,351.635,166.564z"/>
				<path style="fill:#8D2E13;" d="M326.057,187.911c-1.678,2.382-5.554,4.304-8.358,4.768c-0.398,0.065-0.343,0.537,0.056,0.599
					c3.94,0.612,7.667-1.452,8.83-5.072C326.713,187.805,326.265,187.615,326.057,187.911z"/>
				<path style="fill:#402130;" d="M323.433,159.063c-0.161,0.384,0.126,0.503,0.505,0.332c2.888-1.31,6.713-1.699,9.885-1.296
					c0.399,0.05,0.606-0.245,0.311-0.519C330.293,154.02,325.11,155.064,323.433,159.063z"/>
				<path style="fill:#402130;" d="M315.751,159.98c0.095,0.405-0.208,0.476-0.553,0.243c-2.631-1.77-6.339-2.787-9.534-2.915
					c-0.402-0.017-0.557-0.342-0.22-0.564C309.821,153.871,314.76,155.759,315.751,159.98z"/>
				<path style="fill:#402130;" d="M311.9,167.773c0,1.445-1.172,2.616-2.616,2.616c-1.445,0-2.617-1.171-2.617-2.616
					c0-1.445,1.172-2.616,2.617-2.616C310.728,165.156,311.9,166.328,311.9,167.773z"/>
			</g>
			<g>
				<path style="fill:#B30710;" d="M328.963,159.001c-4.838,0-8.77,3.933-8.77,8.771c0,4.838,3.933,8.771,8.77,8.771
					c4.838,0,8.77-3.933,8.77-8.771C337.733,162.934,333.801,159.001,328.963,159.001z M328.963,160.009
					c4.294,0,7.763,3.47,7.763,7.763c0,4.294-3.469,7.764-7.763,7.764c-4.293,0-7.763-3.47-7.763-7.764
					C321.201,163.479,324.67,160.009,328.963,160.009z"/>
				<path style="fill:#B30710;" d="M307.873,159.001c-4.838,0-8.771,3.933-8.771,8.771c0,4.838,3.933,8.771,8.771,8.771
					s8.77-3.933,8.77-8.771C316.642,162.934,312.71,159.001,307.873,159.001z M307.873,160.009c4.294,0,7.763,3.47,7.763,7.763
					c0,4.294-3.469,7.764-7.763,7.764c-4.293,0-7.763-3.47-7.763-7.764C300.11,163.479,303.58,160.009,307.873,160.009z"/>
				<path style="fill:#B30710;" d="M315.67,167.813l0.79,0.626c1.206-1.076,2.702-0.886,3.987-0.128l0.505-0.873
					C319.659,166.368,317.074,166.213,315.67,167.813z"/>
				<path style="fill:#B30710;" d="M350.603,161.253c-6.096,2.907-13.31,6.163-13.31,6.163l0.331,0.952
					c0,0,5.767-2.559,11.927-5.495L350.603,161.253z"/>
			</g>
		</g>
		<g>
			<path style="fill:#F77651;" d="M450.18,283.091c0,0-6.532,34.654-32.648,18.628c-2.93-7.115-6.906-21.976-18.626-47.509
				c-5.022-1.046-7.823-3.92-11.819-7.472c-3.995-3.552-13.763-7.104-8.139-25.454c-3.848-6.511-14.65-26.934-12.432-29.746
				c2.221-2.812,15.644,16.635,19.968,25.465c-1.605-7.312-9.608-31.681-5.612-34.049c3.995-2.368,12.874,26.934,14.059,30.043
				c1.332-1.776,5.476-5.772,12.727,1.628c3.404,0.296,7.695-1.48,8.14,7.991c0.443,9.471,3.699,13.023,2.812,20.866
				C425.119,251.771,439.297,271.372,450.18,283.091z"/>
			<path style="fill:#8D2E13;" d="M378.887,220.987c-0.018,0.417,0.688,0.409,0.611-0.051c-0.033-0.201,0.06-0.318,0.137-0.372
				c4.016-2.856,12.782-0.569,16.091-0.09c0.758,5.757-7.143,7.527-10.456,7.903c-0.41,0.046-0.345,0.653,0.064,0.601
				c4.276-0.548,12.035-2.351,10.927-8.876c-0.024-0.142-0.174-0.193-0.241-0.199c-2.447-0.213-12.609-3.098-16.837,0.284
				C378.955,220.369,378.899,220.715,378.887,220.987z"/>
			<path style="fill:#8D2E13;" d="M390.599,219.179c-0.138,0.387,0.438,0.579,0.574,0.191c1.345-3.827,2.771-4.797,3.666-6.056
				c0.236-0.332-0.159-0.615-0.396-0.322C392.364,215.563,391.406,216.917,390.599,219.179z"/>
			<path style="fill:#8D2E13;" d="M394.776,231.697c7.406,2.936,11.057-3.963,13.655-8.265c0.934,0.627,2.279,1.399,3.43,1.199
				c0.352-0.061,0.256-0.578-0.066-0.535c-1.28,0.171-2.409-0.77-3.336-1.341c-0.173-0.107-0.321-0.009-0.4,0.127
				c-2.932,5.079-6.471,10.633-12.525,8.429c1.37-4.642,4.603-8.609,5.965-12.908c0.853-2.689,2.924-3.223,5.634-3.541
				c0.414-0.049,0.375-0.585-0.039-0.543c-2.78,0.281-4.936,0.645-6.08,3.853C399.232,223.167,396.027,227.321,394.776,231.697z"/>
			<path style="fill:#8D2E13;" d="M395.283,231.768c0.34-0.239,0.067-0.747-0.287-0.532c-1.134,0.683-5.369,3.003-7.205,1.851
				c-1.227-0.77-0.467-3.255-0.019-4.641c0.128-0.399-0.492-0.407-0.6-0.063c-0.598,1.921-1.15,4.181,0.198,5.125
				C389.312,234.868,393.243,233.024,395.283,231.768z"/>
			<path style="fill:#8D2E13;" d="M392.509,233.117c4.277,2.077,6.956,4.22,12.704,10.569c0.275,0.306,0.725-0.102,0.448-0.406
				c-5.795-6.377-8.588-8.634-12.89-10.707C392.434,232.41,392.204,232.969,392.509,233.117z"/>
			<path style="fill:#8D2E13;" d="M399.486,254.164c-0.393-0.093-0.462,0.485-0.073,0.592c2.879,0.79,6.926,2.091,11.707-3.525
				c0.275-0.324-0.089-0.651-0.382-0.375C407.702,253.727,403.444,255.092,399.486,254.164z"/>
		</g>
	</g>
	<g>
		<g>
			<path style="fill:#F77651;" d="M312.481,369.707c-12.109,0.087-22.028,3.86-22.028,3.86l0.455,36.673
				c14.154,0.221,28.665-0.544,42.608-2.543c-1.101-15.261-2.628-34.61-2.628-34.61
				C324.831,370.501,318.394,369.665,312.481,369.707z"/>
			<path style="fill:#8D2E13;" d="M296.148,377.691c-2.141,2.934-3.968,6.14-5.527,9.455l0.287,23.092
				c3.087,0.049,6.191,0.052,9.304,0.002C297.853,395.77,296.148,377.69,296.148,377.691z"/>
		</g>
		<g>
			<g>
				<path style="fill:#D11F29;" d="M276.684,215.91l-43.53,2.93c-6.688,2.143-19.358,4.072-30.309,6.736
					c-10.95,2.663-35.516,18.055-45.875,22.494c-6.511-6.511-23.382,5.328-23.382,5.328s-3.552,32.854-9.471,41.437
					c7.4,21.311,27.821,6.808,27.821,6.808s33.29-6.831,42.081-10.179c-1.436,32.421-7.982,71.129-11.959,92.277
					c16.585,11.161,32.084,17.416,67.902,23.05c14.415,2.269,30.563,3.557,47.012,3.482c-0.584-9.757-1.16-25.898-0.825-32.582
					c5.44-0.837,24.276-0.837,34.74-4.604c8.372-12.975,3.768-22.604-0.837-28.882c-1.674-12.139-4.082-76.007-5.562-89.622
					c-1.48-13.614-10.655-23.087-21.902-26.343C291.34,224.985,276.684,215.91,276.684,215.91z"/>
				<path style="fill:#9B1219;" d="M156.969,248.071c0,0,14.535,41.723-5.032,53.572c0,0,5.56-1.141,12.708-2.712
					C165.517,285.665,165.374,263.513,156.969,248.071z"/>
				<path style="fill:#9B1219;" d="M195.741,254.583c-0.377,7.34-2.894,25.907-7.064,38.567c2.189-0.615,4.038-1.19,5.341-1.686
					C194.018,291.464,196.333,269.381,195.741,254.583z"/>
				<path style="fill:#9B1219;" d="M305.481,272.555c-11.06,38.804-9.528,90.257-9.778,104.78c-0.007,0.403,0.585,0.402,0.604,0
					c0.854-17.784,2.637-66.979,9.761-104.635C306.148,272.281,305.578,272.216,305.481,272.555z"/>
				<path style="fill:#9B1219;" d="M329.689,344.467c-7.464,9.096-24.534,10.676-33.081,11.491c-0.416,0.04-0.362,0.604,0.055,0.602
					c8.973-0.067,28.243-1.897,33.512-11.787C330.372,344.403,329.917,344.188,329.689,344.467z"/>
				<path style="fill:#F7EAEB;" d="M276.684,215.91l-43.53,2.93c-1.356,0.435-2.963,0.86-4.747,1.285
					c-0.334,8.708,0.648,34.555,24.161,34.161c24.365-0.408,27.874-24.71,28.716-35.689
					C278.489,217.023,276.684,215.91,276.684,215.91z"/>
				<path style="fill:#BF161F;" d="M270.768,399.982c0.345,0.21,0.069,0.686-0.301,0.524c-24.359-10.664-55.637-28.67-61.987-70.149
					c-0.053-0.345,0.483-0.484,0.642-0.147C222.336,358.316,245.788,384.735,270.768,399.982z"/>
			</g>
			<g>
				<path style="fill:#B30710;" d="M254.041,259.012c-0.262,10.43-1.181,36.998-3.255,61.549c-0.034,0.405,0.568,0.456,0.602,0.051
					c2.069-24.583,3.119-51.302,3.257-61.58C254.65,258.594,254.049,258.689,254.041,259.012z"/>
				<path style="fill:#7A050B;" d="M256.749,258.87c0,1.445-1.171,2.616-2.616,2.616c-1.445,0-2.616-1.171-2.616-2.616
					c0-1.444,1.171-2.615,2.616-2.615C255.579,256.254,256.749,257.425,256.749,258.87z"/>
				<path style="fill:#7A050B;" d="M256.363,276.357c0,1.444-1.17,2.616-2.615,2.616c-1.444,0-2.616-1.172-2.616-2.616
					c0-1.445,1.172-2.616,2.616-2.616C255.193,273.741,256.363,274.912,256.363,276.357z"/>
				<path style="fill:#7A050B;" d="M255.609,293.784c0,1.445-1.171,2.617-2.615,2.617c-1.445,0-2.616-1.172-2.616-2.617
					c0-1.444,1.171-2.616,2.616-2.616C254.438,291.168,255.609,292.339,255.609,293.784z"/>
				<path style="fill:#7A050B;" d="M254.487,311.455c0,1.444-1.171,2.616-2.616,2.616c-1.445,0-2.616-1.172-2.616-2.616
					c0-1.444,1.171-2.616,2.616-2.616C253.316,308.838,254.487,310.01,254.487,311.455z"/>
			</g>
		</g>
		<g>
			<g>
				<path style="fill:#402130;" d="M228.339,167.564c0,0-8.999-23.859,3.14-36.416c-0.628-4.814-2.72-22.394,24.696-17.58
					c27.416,4.814,39.345,28.882,28.672,54.415C281.917,178.447,252.826,194.144,228.339,167.564z"/>
				<path style="fill:#27111C;" d="M231.159,131.732c0.291,2.905,1.168,7.473,7.252,9.428c0.383,0.124,0.649-0.327,0.299-0.526
					c-5.664-3.206-6.331-6.457-6.961-9.037C231.644,131.169,231.128,131.427,231.159,131.732z"/>
				<path style="fill:#27111C;" d="M281.488,139.254c-1.774,2.913-3.594,3.982-6.124,5.038c-0.392,0.164-0.24,0.607,0.181,0.55
					c3.564-0.486,5.438-2.373,6.41-5.205C282.095,139.23,281.68,138.938,281.488,139.254z"/>
				<path style="fill:#331625;" d="M238.062,130.627c2.137,3.563,24.368,11.686,37.479,7.268
					C271.835,141.742,249.299,143.984,238.062,130.627z"/>
			</g>
			<g>
				<path style="fill:#F78851;" d="M237.548,200.26c0,0,2.302,13.348-4.395,18.581c0.209,8.371-0.209,30.766,19.044,30.766
					c19.254,0,24.277-21.767,24.486-33.696c-1.74-2.268-3.508-4.704-3.558-19.255C266.848,198.748,237.548,200.26,237.548,200.26z"
					/>
				<path style="fill:#8D2E13;" d="M273.126,196.655c-6.278,2.093-35.578,3.605-35.578,3.605s0.231,1.341,0.334,3.338
					c9.239,8.999,19.66,12.829,36.806,8.727C273.801,209.735,273.156,205.368,273.126,196.655z"/>
				<path style="fill:#F78851;" d="M239.013,140.984c-5.899,5.18-7.689,12.636-8.27,22.027c-9.301-9.17-11.166,16.606,0.426,21.959
					c2.29,12.434,9.934,25.788,23.122,25.788c13.581,0,21.621-9.815,24.599-25.35c12.849-4.166,11.127-31.975,1.479-22.331
					c-0.305-9.613-2.274-12.983-5.359-18.535C260.361,150.402,242.78,143.914,239.013,140.984z"/>
				<path style="fill:#8D2E13;" d="M254.298,168.314c-1.214,4.93-4.387,13.65-5.431,19.172c-0.03,0.157,0.067,0.311,0.223,0.35
					c1.834,0.458,5.62,0.901,7.837,0.446c0.397-0.082,0.264-0.66-0.136-0.589c-1.952,0.346-5.317-0.042-7.26-0.401
					c1.1-5.624,4.018-13.931,5.35-18.817C254.994,168.063,254.382,167.972,254.298,168.314z"/>
				<path style="fill:#8D2E13;" d="M260.358,192.143c-1.679,2.382-5.554,4.304-8.359,4.768c-0.398,0.066-0.343,0.536,0.056,0.599
					c4.119,0.648,7.668-1.737,8.83-5.072C261.023,192.041,260.565,191.848,260.358,192.143z"/>
				<path style="fill:#402130;" d="M261.123,159.291c-0.181,0.375,0.101,0.509,0.487,0.357c2.95-1.16,6.79-1.352,9.938-0.787
					c0.397,0.071,0.619-0.214,0.337-0.503C268.232,154.607,263.001,155.383,261.123,159.291z"/>
				<path style="fill:#402130;" d="M269.426,168.512c0,1.445-1.172,2.616-2.617,2.616c-1.444,0-2.616-1.171-2.616-2.616
					c0-1.445,1.172-2.616,2.616-2.616C268.254,165.896,269.426,167.067,269.426,168.512z"/>
				<path style="fill:#402130;" d="M249.734,160.087c0.164,0.383-0.123,0.504-0.503,0.336c-2.896-1.288-6.725-1.647-9.895-1.22
					c-0.398,0.053-0.607-0.241-0.314-0.517C242.834,155.098,248.027,156.102,249.734,160.087z"/>
				<path style="fill:#402130;" d="M241.803,169.083c0,1.444,1.172,2.616,2.616,2.616c1.444,0,2.616-1.172,2.616-2.616
					c0-1.445-1.172-2.616-2.616-2.616C242.975,166.466,241.803,167.638,241.803,169.083z"/>
				<path style="fill:#8D2E13;" d="M278.662,183.455c-0.056,0.406,0.543,0.49,0.599,0.083c1.279-9.287,1.444-12.745,1.427-18.135
					c-0.001-0.438-0.569-0.359-0.577-0.035C279.942,172.911,279.393,178.156,278.662,183.455z"/>
				<path style="fill:#8D2E13;" d="M280.244,168.32c0,0-0.071,5.629-0.713,10.83c4.275-0.427,5.344-5.201,5.272-9.191
					C284.737,166.229,281.312,167.037,280.244,168.32z"/>
				<path style="fill:#8D2E13;" d="M231.632,182.763c0.043,0.408-0.558,0.473-0.601,0.064c-0.986-9.322-1.036-12.784-0.855-18.171
					c0.013-0.39,0.601-0.364,0.598,0.015C230.721,172.212,231.07,177.445,231.632,182.763z"/>
				<path style="fill:#8D2E13;" d="M230.529,167.586c0,0-0.106,5.628,0.37,10.847c-3.761-0.633-4.678-5.438-4.48-9.424
					C226.602,165.284,229.501,166.27,230.529,167.586z"/>
			</g>
		</g>
		<g>
			<path style="fill:#402130;" d="M64.053,161.914h94.177c3.594,0,6.487,2.894,6.487,6.488v42.276c0,3.595-2.893,6.488-6.487,6.488
				H64.053c-3.595,0-6.488-2.893-6.488-6.488v-42.276C57.564,164.807,60.458,161.914,64.053,161.914z"/>
			<path style="fill:#472837;" d="M97.789,161.914l55.252,55.252h5.189c3.594,0,6.487-2.893,6.487-6.488v-42.276
				c0-3.594-2.893-6.488-6.487-6.488H97.789z"/>
			<path style="fill:#FFFFFF;" d="M158.965,169.424c0,1.222-0.991,2.213-2.213,2.213c-1.222,0-2.213-0.991-2.213-2.213
				c0-1.222,0.991-2.213,2.213-2.213C157.975,167.21,158.965,168.202,158.965,169.424z"/>
			<path style="fill:#FFFFFF;" d="M158.965,174.664c0,0.777-0.63,1.407-1.407,1.407c-0.777,0-1.407-0.63-1.407-1.407
				s0.63-1.407,1.407-1.407C158.335,173.257,158.965,173.887,158.965,174.664z"/>
		</g>
		<g>
			<path style="fill:#F78851;" d="M133.587,253.399c0,0,10.621,4.16,8.318,22.578c-2.302,18.417-13.395,21.813-17.79,18.858
				c-4.395-2.953-45.832-32.882-56.924-46.485c-15.095-7.46-33.001-27.164-21.347-34.742c-3.977-2.512-6.488-9.208-0.628-14.232
				c-7.498-2.057,2.407-31.467,11.301-30.347c-2.093-5.023-2.093-13.604,11.092-15.278c13.185-1.674,24.552,1.649,14.022,8.163
				c-2.827,1.748-20.091-2.302-18.208,7.325c18.159-0.782,36.408,6.273,32.229,11.092c-5.313,6.129-37.671-9.169-38.09,11.511
				c3.558-1.046,38.032,0.633,39.136,6.906c2.175,12.359-39.275-4.852-38.92,13.604c5.232-0.419,40.734,0.497,42.954,7.157
				c2.22,6.66-11.099,4.291-11.099,4.291s1.417,3.814,0.444,9.62C93.04,234.308,122.785,247.331,133.587,253.399z"/>
			<path style="fill:#992807;" d="M90.08,233.42c0,0-1.322,6.013-8.344,9.653c6.601-2.066,10.897-5.842,12.402-8.055
				C92.074,234.157,90.623,233.583,90.08,233.42z"/>
			<path style="fill:#992807;" d="M61.801,228.794c4.428-7.67,20.079-4.128,27.48-4.517c0.403-0.021,0.468-0.555,0.067-0.601
				c-6.679-0.764-24.241-3.475-28.075,4.826C61.033,229.023,61.588,229.161,61.801,228.794z"/>
			<path style="fill:#992807;" d="M45.113,198.814c-0.262,0.307,0.208,0.695,0.466,0.386c2.838-3.395,6.727-6.441,11.65-7.142
				c0.339-0.048,0.347-0.628-0.084-0.568C51.646,192.244,47.943,195.493,45.113,198.814z"/>
			<path style="fill:#992807;" d="M57.373,212.485c0.403-0.005,0.382-0.605-0.021-0.599c-2.729,0.04-5.275,0.466-7.459,1.167
				c-0.36,0.115-0.237,0.629,0.134,0.53C52.562,212.903,55.184,212.512,57.373,212.485z"/>
			<path style="fill:#992807;" d="M63.072,168.686c-1.882-0.156-3.248-0.31-6.303-0.231c-0.376,0.009-0.443,0.589,0.05,0.591
				c2.305,0.009,4.541,0.32,6.239,0.239C63.468,169.266,63.391,168.712,63.072,168.686z"/>
		</g>
	</g>
</g>
</svg>
